<svg width="48" height="48" viewBox="0 0 48 48" fill="none" xmlns="http://www.w3.org/2000/svg">
<g clip-path="url(#clip0_8_22)">
<path fill-rule="evenodd" clip-rule="evenodd" d="M45.6 21.6H2.4C1.0752 21.6 0 22.6752 0 24C0 25.3272 1.0752 26.4 2.4 26.4H45.6C46.9248 26.4 48 25.3272 48 24C48 22.6752 46.9248 21.6 45.6 21.6ZM45.6 40.8H2.4C1.0752 40.8 0 41.8752 0 43.2C0 44.5272 1.0752 45.6 2.4 45.6H45.6C46.9248 45.6 48 44.5272 48 43.2C48 41.8752 46.9248 40.8 45.6 40.8ZM2.4 7.20002H45.6C46.9248 7.20002 48 6.12722 48 4.80002C48 3.47522 46.9248 2.40002 45.6 2.40002H2.4C1.0752 2.40002 0 3.47522 0 4.80002C0 6.12722 1.0752 7.20002 2.4 7.20002Z" fill="black"/>
</g>
<defs>
<clipPath id="clip0_8_22">
<rect width="48" height="48" fill="white"/>
</clipPath>
</defs>
</svg>
