<?xml version="1.0" encoding="UTF-8"?>
<svg version="1.1" xmlns="http://www.w3.org/2000/svg" width="4600" height="1774">
<path d="M0 0 C1518 0 3036 0 4600 0 C4600 585.42 4600 1170.84 4600 1774 C3082 1774 1564 1774 0 1774 C0 1188.58 0 603.16 0 0 Z " fill="#C42328" transform="translate(0,0)"/>
<path d="M0 0 C0.83572012 0.00002625 1.67144024 0.00005251 2.53248521 0.00007956 C3.49578549 -0.00231672 4.45908577 -0.00471301 5.45157696 -0.00718191 C7.06271674 -0.00349147 7.06271674 -0.00349147 8.7064048 0.00027352 C9.84213031 -0.00105573 10.97785582 -0.00238499 12.14799725 -0.00375452 C15.33601308 -0.00645459 18.52399097 -0.00461026 21.71200472 -0.00095154 C25.18430484 0.0019383 28.65660075 -0.00095443 32.12890072 -0.0031268 C38.25880839 -0.00614984 44.38870696 -0.0054054 50.51861445 -0.00229056 C59.72210946 0.00236502 68.92559758 0.00126014 78.12909317 -0.0009896 C93.88185875 -0.00467025 109.63462085 -0.00356221 125.38738629 0.0000615 C141.4519014 0.00373647 157.5164145 0.00522067 173.58093001 0.00404579 C174.59722799 0.0039728 175.61352598 0.00389982 176.66062087 0.00382462 C181.84917136 0.00344215 187.03772184 0.00302453 192.22627232 0.00259493 C230.18759027 -0.00047274 268.14890676 0.00140417 306.11022451 0.00573921 C344.60638519 0.01011912 383.10254509 0.01232168 421.59870603 0.011837 C422.81115495 0.01182271 424.02360388 0.01180842 425.27279368 0.0117937 C436.38351149 0.01166195 447.4942293 0.01150584 458.60494711 0.0113207 C486.4706102 0.0108575 514.33627329 0.01072509 542.20193639 0.01081192 C543.47907812 0.01081567 544.75621985 0.01081942 546.07206284 0.01082328 C609.08622932 0.01103764 672.1003955 0.01500733 735.11456182 0.01921463 C757.306877 0.02069377 779.49919218 0.0221551 801.69150736 0.02355075 C803.07099487 0.02363751 804.45048238 0.02372428 805.87177255 0.02381368 C869.73745359 0.02780887 933.60313461 0.02924226 997.46881577 0.03001672 C1001.64414534 0.03006748 1005.81947491 0.03011944 1009.99480448 0.03017172 C1035.17161174 0.03048581 1060.34841901 0.03077318 1085.52522627 0.03102969 C1148.11869148 0.03166859 1210.71215668 0.03262809 1273.30562188 0.03380489 C1274.73069679 0.03383152 1276.1557717 0.03385816 1277.6240307 0.0338856 C1369.94532687 0.03561359 1462.26662293 0.0386616 1554.58791902 0.0428133 C1556.06223513 0.04287959 1557.53655124 0.04294588 1559.05554359 0.04301417 C1603.93616917 0.04503492 1648.81679474 0.04715328 1693.6974203 0.04929074 C1743.36366817 0.05165569 1793.02991604 0.05400398 1842.69616391 0.05628013 C1844.93634696 0.05638288 1844.93634696 0.05638288 1847.22178623 0.05648771 C1989.03184678 0.06298654 2130.84190736 0.06679827 2272.65196802 0.06991392 C2278.65758239 0.07004606 2284.66319675 0.07017898 2290.66881111 0.07031194 C2345.9332296 0.07153533 2401.19764809 0.07272716 2456.46206659 0.07387936 C2457.93158068 0.07391 2459.40109478 0.07394064 2460.9151396 0.0739722 C2465.36443278 0.07406497 2469.81372597 0.07415772 2474.26301915 0.07425047 C2594.46701815 0.0767564 2714.67101715 0.07953761 2834.87501614 0.0824971 C2839.11630085 0.08260146 2843.35758557 0.0827056 2847.59887028 0.08280968 C2985.36509402 0.08619125 3123.13131772 0.09006873 3611.87035825 0.10907554 C3613.06322022 0.1091255 3614.25608219 0.10917546 3615.4850915 0.10922694 C3650.77711155 0.11070516 3686.06913161 0.11219519 3721.36115167 0.11369784 C3725.42680098 0.11387094 3729.4924503 0.11404393 3733.55809961 0.11421691 C3814.74348466 0.1176749 3895.9288697 0.12132799 3977.11425474 0.12494468 C3977.11425474 182.94494468 3977.11425474 365.76494468 3977.11425474 554.12494468 C2663.71425474 554.12494468 1350.31425474 554.12494468 -2.88574526 554.12494468 C-2.88574526 0.19120214 -2.88574526 0.19120214 0 0 Z " fill="#231F20" transform="translate(312.88574526472075,1219.875055315424)"/>
<path d="M0 0 C86.46 0 172.92 0 262 0 C266.49998642 11.24996605 266.49998642 11.24996605 268.13976097 16.17598057 C268.5152981 17.29922657 268.89083524 18.42247256 269.27775228 19.57975632 C269.67677365 20.78332824 270.07579503 21.98690017 270.48690796 23.22694397 C270.92560382 24.54287518 271.36456529 25.85871786 271.80376685 27.17448038 C273.0017619 30.76594956 274.19603606 34.35864629 275.38967872 37.95156395 C276.681489 41.83773925 277.97680555 45.72274575 279.271698 49.6078949 C281.51511088 56.34049195 283.75636073 63.07380586 285.99616623 69.80760384 C289.24942285 79.5881564 292.50633406 89.36748901 295.76416416 99.146519 C301.07010051 115.07358214 306.37358032 131.00146207 311.67529297 146.92993164 C311.99234501 147.88248108 312.30939706 148.83503053 312.63605674 149.8164451 C312.95343544 150.76997675 313.27081415 151.7235084 313.59781039 152.70593494 C314.23964472 154.63425878 314.88147973 156.56258238 315.52331543 158.49090576 C315.84125656 159.44612447 316.15919769 160.40134318 316.48677339 161.38550792 C319.99764213 171.93337282 323.50920699 182.48100594 327.02099609 193.02856445 C327.33462508 193.97054226 327.64825406 194.91252006 327.97138695 195.88304264 C333.24315579 211.71651511 338.51620191 227.54956203 343.78988326 243.38239759 C346.74134958 252.24363507 349.69204648 261.10512748 352.64088058 269.96724129 C367.14541171 313.64609578 367.14541171 313.64609578 381.93278837 357.22962987 C390.88443526 383.29517353 399.52542205 409.4667431 408.22920348 435.61583431 C410.91372098 443.68070302 413.60032617 451.74487583 416.28707735 459.80900063 C421.0905679 474.22647711 425.89293476 488.64432757 430.69433594 503.0625 C431.12184511 504.34626924 431.12184511 504.34626924 431.55799083 505.65597321 C433.58035743 511.72897208 435.60268288 517.80198465 437.625 523.875 C439.93877243 530.82325206 442.25256529 537.77149732 444.56640625 544.71972656 C444.99428064 546.00459193 444.99428064 546.00459193 445.43079896 547.31541418 C450.22145831 561.70117366 455.01334046 576.08652556 459.80606019 590.47159874 C462.47992434 598.49722292 465.15315328 606.52305758 467.82475662 614.54943466 C470.56904967 622.79414677 473.31469817 631.03840633 476.06178686 639.28218737 C476.76532943 641.39363678 477.46865683 643.50515778 478.17196965 645.61668372 C482.41909341 658.36529027 486.67084403 671.11179395 491.04949951 683.815979 C491.34584726 684.67595383 491.64219501 685.53592866 491.947523 686.42196333 C493.24692 690.18638533 494.55326064 693.94817625 495.87229347 697.70576286 C496.2973184 698.92628916 496.72234333 700.14681545 497.1602478 701.40432739 C497.52081961 702.42883562 497.88139141 703.45334385 498.25288963 704.50889778 C499 707 499 707 499 710 C427.06 710 355.12 710 281 710 C279.08691991 704.26075973 277.20554897 698.52907041 275.42797852 692.74902344 C275.19012634 691.97855179 274.95227417 691.20808014 274.70721436 690.41426086 C273.93014535 687.89626249 273.15451295 685.37782415 272.37890625 682.859375 C271.83235801 681.08731426 271.28572047 679.31528105 270.73899841 677.54327393 C269.30446551 672.89287669 267.87115916 668.24210231 266.43811035 663.59124756 C264.99009879 658.89262869 263.54088772 654.19437984 262.09179688 649.49609375 C259.96105506 642.58710352 257.83076472 635.6779744 255.70141602 628.76855469 C255.48674179 628.07202286 255.27206757 627.37549103 255.05088806 626.65785217 C253.03189506 620.10585796 251.01625802 613.55283856 249 607 C167.16 607 85.32 607 1 607 C-2.68271394 618.66192748 -6.35928741 630.32501698 -10 642 C-12.65207982 650.50465017 -15.31473052 659.00576278 -18 667.5 C-18.75912906 669.9032644 -19.51807702 672.30658582 -20.27685547 674.70996094 C-20.74171372 676.18206439 -21.20685906 677.65407724 -21.67236328 679.12597656 C-21.88489746 679.79854492 -22.09743164 680.47111328 -22.31640625 681.1640625 C-22.49888916 681.7410791 -22.68137207 682.3180957 -22.86938477 682.91259766 C-25.69046247 691.91739023 -28.33535562 700.9402091 -31 710 C-99.31 710 -167.62 710 -238 710 C-236.09966653 703.03211062 -234.16604697 696.25059348 -231.80908203 689.45068359 C-231.50505337 688.56366886 -231.2010247 687.67665413 -230.88778305 686.76276016 C-230.23200061 684.84989982 -229.57480487 682.93752351 -228.91631699 681.0255928 C-227.11186055 675.7839528 -225.32019776 670.53794319 -223.52832031 665.29199219 C-223.15477606 664.19884768 -222.7812318 663.10570316 -222.39636803 661.97943306 C-218.3713348 650.18494609 -214.42576067 638.36430908 -210.4921875 626.5390625 C-209.96226574 624.94686512 -209.96226574 624.94686512 -209.42163849 623.32250214 C-206.90391411 615.75739167 -204.38906729 608.19132647 -201.875 600.625 C-198.99939439 591.97068861 -196.12250696 583.31680631 -193.2421875 574.6640625 C-192.71663143 573.08511326 -192.71663143 573.08511326 -192.18045807 571.47426605 C-187.11947162 556.27710823 -181.98698065 541.1058491 -176.79395676 525.95334244 C-171.41379678 510.2541316 -166.1432405 494.52031809 -160.91699219 478.76928711 C-158.43941019 471.30280684 -155.95490979 463.83862786 -153.46875 456.375 C-153.22558044 455.64494247 -152.98241089 454.91488495 -152.73187256 454.16270447 C-148.62252596 441.82957242 -144.44704279 429.52031049 -140.21829224 417.22763062 C-133.64612006 398.10800751 -127.29305467 378.91510238 -120.91390991 359.73046875 C-115.03586633 342.05416321 -109.1229752 324.39245453 -103.04754639 306.78277588 C-99.81687626 297.41124043 -96.67753742 288.01568398 -93.63835144 278.58023071 C-93.37809111 277.77245493 -93.11783077 276.96467915 -92.84968376 276.13242531 C-92.35100537 274.58357295 -91.85271335 273.0345961 -91.35495186 271.48544884 C-87.86966074 260.64223624 -84.26948971 249.84467442 -80.56192017 239.07556152 C-74.7694843 222.23811887 -69.09161079 205.3635008 -63.46875 188.46875 C-63.10380873 187.37244074 -62.73886745 186.27613148 -62.36286736 185.14660072 C-59.73974955 177.26511889 -57.11953989 169.38267161 -54.5 161.5 C-51.51239627 152.50975739 -48.52354683 143.5199318 -45.53125 134.53125 C-44.98469537 132.88930507 -44.98469537 132.88930507 -44.42709923 131.21418953 C-39.27932467 115.75697914 -34.06337394 100.32458621 -28.78052711 84.91305351 C-24.75471879 73.16831131 -20.77428861 61.40979943 -16.85546875 49.62890625 C-16.61617268 48.9095779 -16.3768766 48.19024956 -16.13032913 47.44912338 C-14.48046937 42.48766177 -12.83371707 37.52517121 -11.1875 32.5625 C-9.49248414 27.45357301 -7.79632089 22.34503111 -6.09774208 17.23728752 C-5.43339441 15.23783211 -4.77086114 13.2377819 -4.10844421 11.23768616 C-3.71325089 10.04880295 -3.31805756 8.85991974 -2.91088867 7.63500977 C-2.56450851 6.59063248 -2.21812836 5.54625519 -1.86125183 4.4702301 C-1 2 -1 2 0 0 Z " fill="#FEFEFE" transform="translate(2571,323)"/>
<path d="M0 0 C1.86949407 -0.00576172 1.86949407 -0.00576172 3.77675569 -0.01163983 C5.17796101 -0.01085942 6.57916627 -0.0099806 7.98037148 -0.00901413 C9.45517035 -0.01159561 10.92996853 -0.01460816 12.40476573 -0.01801753 C16.477753 -0.02611848 20.55072269 -0.02787884 24.62371707 -0.028615 C29.01008312 -0.03046059 33.39643993 -0.03800618 37.78280067 -0.04475021 C47.39168467 -0.05836367 57.0005645 -0.06436507 66.60945654 -0.06876087 C72.61707428 -0.07152248 78.6246904 -0.0757601 84.63230705 -0.08026505 C101.28117141 -0.09246969 117.93003447 -0.10276139 134.5789032 -0.10614014 C136.17932516 -0.10646949 136.17932516 -0.10646949 137.81207887 -0.10680549 C138.88156454 -0.10702377 139.95105021 -0.10724204 141.05294454 -0.10746694 C143.22004787 -0.1079104 145.3871512 -0.10835696 147.55425453 -0.10880661 C148.6292092 -0.10902804 149.70416386 -0.10924947 150.81169291 -0.10947761 C168.1689652 -0.11341229 185.52619516 -0.13082007 202.88345115 -0.15416613 C220.72538065 -0.17796875 238.56728903 -0.1903463 256.40923464 -0.19150805 C266.41745084 -0.19242069 276.42561214 -0.19806699 286.4338131 -0.21632767 C294.97167014 -0.23185038 303.50945537 -0.23677893 312.04732387 -0.22858956 C316.39290162 -0.2247234 320.73833537 -0.22541032 325.08389473 -0.23964691 C390.81142534 -0.44247438 452.57130702 16.04920758 501.84575844 61.86580276 C503.99446895 63.85028062 506.18768389 65.74738563 508.42388344 67.63142776 C525.1002142 82.2945194 537.47913125 101.96042981 548.29888344 121.13142776 C548.70300453 121.83267776 549.10712563 122.53392776 549.52349281 123.25642776 C559.48050217 140.6019717 567.19685008 159.79762495 572.29888344 179.13142776 C572.54090492 180.03844437 572.78292641 180.94546097 573.03228188 181.87996292 C584.21301237 224.63347315 586.2815582 273.75302442 577.29888344 317.13142776 C576.98539955 318.74742874 576.98539955 318.74742874 576.66558266 320.3960762 C567.46368278 367.2809623 545.93294502 411.32109401 514.29888344 447.13142776 C513.56282875 447.98994339 512.82677406 448.84845901 512.06841469 449.73299026 C483.28924268 482.75826962 442.51361665 505.63985208 401.29888344 519.13142776 C400.1245475 519.5220137 398.95021156 519.91259964 397.74028969 520.31502151 C372.78059139 528.32331423 346.86618344 532.18305235 320.70513344 532.17830276 C318.86970734 532.17800064 318.86970734 532.17800064 316.99720192 532.17769241 C294.32653047 532.15230239 271.65559614 531.8582494 248.98638344 531.63142776 C232.25950844 531.46642776 215.53263344 531.30142776 198.29888344 531.13142776 C198.29888344 590.53142776 198.29888344 649.93142776 198.29888344 711.13142776 C130.64888344 711.13142776 62.99888344 711.13142776 -6.70111656 711.13142776 C-6.72124734 628.47288955 -6.72124734 628.47288955 -6.72676659 602.90634537 C-6.72696392 601.9945256 -6.72716125 601.08270583 -6.72736457 600.14325516 C-6.73398618 569.46421825 -6.73923832 538.78518128 -6.7434597 508.10614395 C-6.74359776 507.10536835 -6.74373582 506.10459276 -6.74387806 505.07349062 C-6.7468706 483.32668751 -6.74964083 461.57988437 -6.75218189 439.83308119 C-6.75342929 429.16926507 -6.75472583 418.50544895 -6.7560482 407.84163284 C-6.75617896 406.78042529 -6.75630972 405.71921774 -6.75644444 404.62585238 C-6.76070978 370.19655658 -6.76822406 335.76726242 -6.77741378 301.33796762 C-6.78683619 265.97288235 -6.79299964 230.60779798 -6.79503155 195.24271148 C-6.79531973 190.25365094 -6.79564537 185.2645904 -6.7959938 180.27552986 C-6.79606123 179.29356044 -6.79612865 178.31159102 -6.79619812 177.29986496 C-6.79738225 161.45942392 -6.80202679 145.61898567 -6.8079486 129.77854577 C-6.81382119 113.8738224 -6.81608823 97.9691018 -6.81461794 82.06437737 C-6.81385433 72.60200148 -6.81591201 63.13963572 -6.8219141 53.67726165 C-6.82564423 47.36863194 -6.82579426 41.06000894 -6.82294838 34.75137879 C-6.82142831 31.14899098 -6.82154507 27.54662244 -6.82599974 23.94423664 C-6.83074586 20.07708512 -6.82788311 16.20996192 -6.82416439 12.34280872 C-6.8267914 11.20635047 -6.82941842 10.06989222 -6.83212504 8.89899585 C-6.82987774 7.87902234 -6.82763045 6.85904883 -6.82531506 5.80816704 C-6.82547104 4.92235308 -6.82562702 4.03653911 -6.82578773 3.1238823 C-6.56330237 -1.07107439 -3.53559984 0.00406315 0 0 Z " fill="#FEFEFE" transform="translate(1622.7011165618896,321.8685722351074)"/>
<path d="M0 0 C3.45510494 0.01146175 6.90990394 0.00455861 10.36499882 -0.0068779 C26.25489693 -0.05151164 41.96380182 0.35576085 57.75244141 2.26074219 C58.98220703 2.40672852 60.21197266 2.55271484 61.47900391 2.703125 C97.29291146 7.32602056 133.10560696 17.73266548 165.75244141 33.26074219 C166.69410156 33.70353516 167.63576172 34.14632812 168.60595703 34.60253906 C188.47539013 44.01437579 207.15459704 55.07851361 224.75244141 68.26074219 C225.56285889 68.86499023 225.56285889 68.86499023 226.38964844 69.48144531 C247.02195853 84.91135662 267.30558351 102.35668763 283.75244141 122.26074219 C284.19491211 122.78941895 284.63738281 123.3180957 285.09326172 123.86279297 C296.49053275 137.50341825 306.96005864 151.71736578 316.62744141 166.63574219 C317.15797119 167.43858643 317.68850098 168.24143066 318.23510742 169.06860352 C318.71262451 169.82036865 319.1901416 170.57213379 319.68212891 171.34667969 C320.1073584 172.00716309 320.53258789 172.66764648 320.97070312 173.34814453 C321.75244141 175.26074219 321.75244141 175.26074219 321.59667969 177.32958984 C320.54724468 179.7301193 319.45650823 180.5780235 317.31494141 182.07324219 C316.59363037 182.58508057 315.87231934 183.09691895 315.12915039 183.62426758 C314.34483643 184.1643042 313.56052246 184.70434082 312.75244141 185.26074219 C311.94299072 185.83107178 311.13354004 186.40140137 310.29956055 186.98901367 C308.61407966 188.17518989 306.92530512 189.35669878 305.23339844 190.53369141 C302.93880673 192.13100904 300.65398192 193.74097528 298.37353516 195.35839844 C294.87504589 197.83920448 291.36952952 200.30980821 287.86132812 202.77685547 C284.32202991 205.26722992 280.78743328 207.76426066 277.25244141 210.26074219 C273.01644694 213.25228567 268.77957532 216.24253047 264.53759766 219.22558594 C257.28009029 224.33306305 250.05664554 229.48119242 242.87744141 234.69824219 C235.9576564 239.72297612 228.93736004 244.57970733 221.86279297 249.38330078 C215.62392813 253.63242524 209.49256678 258.01553295 203.38574219 262.45166016 C195.5631083 268.13383207 187.67303146 273.71614736 179.75244141 279.26074219 C179.00526855 279.78571289 178.2580957 280.31068359 177.48828125 280.8515625 C175.26745631 282.40988638 173.04199365 283.961335 170.81494141 285.51074219 C170.13415527 285.98914551 169.45336914 286.46754883 168.75195312 286.96044922 C163.98214195 290.26074219 163.98214195 290.26074219 161.75244141 290.26074219 C161.30255859 289.43574219 160.85267578 288.61074219 160.38916016 287.76074219 C152.05101171 272.69371679 142.37192978 258.97734963 130.75244141 246.26074219 C130.00478516 245.44089844 129.25712891 244.62105469 128.48681641 243.77636719 C109.38214573 223.82260004 83.75662922 209.02121484 57.75244141 200.26074219 C56.74955078 199.89464844 55.74666016 199.52855469 54.71337891 199.15136719 C43.74939697 195.3906346 32.18076037 193.95328002 20.75244141 192.26074219 C19.47240234 192.06351563 18.19236328 191.86628906 16.87353516 191.66308594 C-24.41624383 186.77093203 -68.95686062 197.74854259 -102.12255859 223.19824219 C-108.43479563 228.2702916 -114.3859832 233.68105302 -120.24755859 239.26074219 C-121.00423828 239.95296875 -121.76091797 240.64519531 -122.54052734 241.35839844 C-144.66365731 262.27261419 -159.98729344 291.9225124 -167.49755859 321.13574219 C-167.8671167 322.55113281 -167.8671167 322.55113281 -168.24414062 323.99511719 C-171.8976989 338.90224094 -172.6599065 353.91559011 -172.62255859 369.19824219 C-172.62201477 370.04391754 -172.62147095 370.8895929 -172.62091064 371.76089478 C-172.48317003 418.64284102 -156.58846156 461.07975337 -124.24755859 495.26074219 C-123.47927734 496.081875 -122.71099609 496.90300781 -121.91943359 497.74902344 C-112.50625797 507.51139751 -101.82288538 515.23826527 -90.24755859 522.26074219 C-89.02359375 523.06898438 -89.02359375 523.06898438 -87.77490234 523.89355469 C-51.4253687 546.91314153 0.33358828 552.59656066 42.17138672 543.85595703 C56.92958246 540.45258196 71.17614864 536.00135024 84.75244141 529.26074219 C85.5086377 528.89078125 86.26483398 528.52082031 87.04394531 528.13964844 C122.09020142 510.85384595 149.55348714 483.82961009 167.75244141 449.26074219 C172.01166964 450.70639265 175.00218243 452.8337214 178.50244141 455.63574219 C183.52038434 459.59155628 188.63805551 463.35367633 193.87744141 467.01074219 C200.04467837 471.3241059 206.14086525 475.72062761 212.18994141 480.19824219 C220.58766783 486.41312294 229.03966203 492.54831466 237.51855469 498.65185547 C241.26603924 501.35086347 245.00899986 504.05613103 248.75244141 506.76074219 C250.25241995 507.84410523 251.75241994 508.92743857 253.25244141 510.01074219 C257.75244141 513.26074219 257.75244141 513.26074219 262.25244141 516.51074219 C262.99486084 517.04691162 263.73728027 517.58308105 264.50219727 518.13549805 C266.0030969 519.21952635 267.50391063 520.30367361 269.00463867 521.38793945 C272.74018108 524.08661874 276.47716394 526.7832553 280.21728516 529.47558594 C288.9086065 535.73599404 297.55433747 542.05358144 306.16748047 548.42114258 C311.63601955 552.45703475 317.14159893 556.42402214 322.75244141 560.26074219 C317.88314892 573.58854791 308.39035683 585.19564392 299.75244141 596.26074219 C299.05248047 597.164375 298.35251953 598.06800781 297.63134766 598.99902344 C284.36290186 615.85353567 270.00074845 632.22938895 253.75244141 646.26074219 C253.01638672 646.94652344 252.28033203 647.63230469 251.52197266 648.33886719 C243.73823076 655.58804725 235.29260429 661.93997194 226.75244141 668.26074219 C226.05699219 668.77572266 225.36154297 669.29070313 224.64501953 669.82128906 C183.03405682 700.40948019 133.5766771 722.6640323 82.75244141 732.26074219 C81.57891113 732.48842285 80.40538086 732.71610352 79.19628906 732.95068359 C58.44274593 736.8968376 37.84704418 738.67663486 16.75244141 739.26074219 C15.63709015 739.29167969 15.63709015 739.29167969 14.49920654 739.32324219 C-48.84893883 740.96922751 -109.07372555 731.07081572 -167.24755859 705.26074219 C-168.46330566 704.72731201 -168.46330566 704.72731201 -169.70361328 704.18310547 C-195.65666112 692.73390189 -220.24235014 677.11639705 -242.24755859 659.26074219 C-243.63201172 658.16246094 -243.63201172 658.16246094 -245.04443359 657.04199219 C-251.51717102 651.84917459 -257.64708666 646.32599792 -263.71826172 640.67675781 C-265.25622726 639.25271564 -266.80452338 637.84088894 -268.35693359 636.43261719 C-276.36264649 629.16630152 -284.22885286 621.80928559 -291.26318359 613.58105469 C-292.77708589 611.81086185 -294.31232563 610.05889437 -295.85693359 608.31542969 C-308.74502889 593.68887935 -320.02852386 577.84821576 -330.24755859 561.26074219 C-330.68632324 560.5561084 -331.12508789 559.85147461 -331.57714844 559.12548828 C-352.28481979 525.62000764 -366.16419145 487.72927914 -374.24755859 449.26074219 C-374.50923828 448.12636719 -374.77091797 446.99199219 -375.04052734 445.82324219 C-377.75918041 433.45820083 -378.98341961 420.84426014 -380.24755859 408.26074219 C-380.3319519 407.48225922 -380.41634521 406.70377625 -380.5032959 405.90170288 C-381.25747782 398.47466889 -381.424441 391.10546785 -381.45068359 383.64355469 C-381.45638367 382.35174286 -381.46208374 381.05993103 -381.46795654 379.72897339 C-381.47839588 376.99753436 -381.48428088 374.26612405 -381.48779297 371.53466797 C-381.49212556 368.80080434 -381.50582462 366.06726563 -381.52880859 363.33349609 C-381.7363534 338.12994443 -380.36666452 313.01336681 -375.24755859 288.26074219 C-375.06386719 287.37128906 -374.88017578 286.48183594 -374.69091797 285.56542969 C-363.80725552 234.2912866 -341.63589027 185.50699803 -309.24755859 144.26074219 C-308.55404297 143.36613281 -307.86052734 142.47152344 -307.14599609 141.54980469 C-305.21265295 139.09135599 -303.23866457 136.67261018 -301.24755859 134.26074219 C-300.46123047 133.28878906 -299.67490234 132.31683594 -298.86474609 131.31542969 C-292.39322314 123.45230926 -285.36343629 116.16331698 -278.18505859 108.94824219 C-276.8206665 107.57007324 -276.8206665 107.57007324 -275.42871094 106.1640625 C-270.08800756 100.84736013 -264.57479517 95.92904868 -258.69213867 91.21948242 C-256.73145876 89.64847124 -254.81571411 88.05334246 -252.92724609 86.39746094 C-244.47922797 79.02015263 -235.53394194 72.54074244 -226.24755859 66.26074219 C-225.56177734 65.79667969 -224.87599609 65.33261719 -224.16943359 64.85449219 C-184.34732743 38.10376438 -140.64595909 19.33852895 -93.86914062 8.84960938 C-91.67778563 8.357381 -89.4913876 7.84954559 -87.30615234 7.33105469 C-58.70323274 0.77973662 -29.2249698 -0.09777867 0 0 Z " fill="#FEFEFE" transform="translate(3629.24755859375,308.7392578125)"/>
<path d="M0 0 C29.31608214 -0.50264931 58.6318573 -0.89160101 87.95137209 -1.12343725 C91.41827207 -1.15095045 94.88516353 -1.17942576 98.35205078 -1.20849609 C99.04220106 -1.21426692 99.73235134 -1.22003775 100.44341527 -1.22598346 C111.59651535 -1.32153323 122.74710271 -1.49488001 133.89871551 -1.69736151 C145.35488921 -1.90362683 156.80903136 -2.02375247 168.26711547 -2.06994689 C174.69868864 -2.09857511 181.12457904 -2.16555338 187.5543251 -2.32606125 C193.6154361 -2.47613192 199.66856518 -2.52133133 205.73135757 -2.48836899 C207.94802388 -2.4943914 210.16497379 -2.537776 212.38002777 -2.62252045 C225.9897699 -3.11739204 225.9897699 -3.11739204 232 0 C237.6573557 5.38644353 241.14583563 12.28227332 244.57266021 19.21204257 C246.76418684 23.49265115 249.37466884 27.47676034 252 31.5 C252.98405951 33.05454316 253.96609007 34.61037414 254.9453125 36.16796875 C260.60460635 45.12821051 266.30608758 54.06173727 272 63 C279.17310101 74.26028234 286.33919004 85.5245995 293.46142578 96.81713867 C297.29230692 102.88787506 301.14336932 108.94559506 305 115 C309.34725328 121.82461814 313.68334923 128.65598376 318 135.5 C324.07631478 145.13057757 330.17799248 154.74474544 336.30712891 164.34179688 C337.96629406 166.94707381 339.61479104 169.55884997 341.26171875 172.171875 C342.25754279 173.73975467 343.25362202 175.30747229 344.25 176.875 C344.70383057 177.60090332 345.15766113 178.32680664 345.62524414 179.07470703 C346.69697438 180.75167641 347.84120008 182.38197196 349 184 C349.66 184 350.32 184 351 184 C352.56910588 181.90138834 352.56910588 181.90138834 354.16796875 179.15625 C354.80613525 178.10679199 355.44430176 177.05733398 356.10180664 175.97607422 C356.44116241 175.41047791 356.78051819 174.84488159 357.13015747 174.262146 C358.56227971 171.8753996 360.01003256 169.49827255 361.45671082 167.12033081 C362.20399304 165.89145852 362.95041176 164.66206075 363.69599915 163.43215942 C367.265231 157.54652811 370.90528918 151.70633548 374.5625 145.875 C375.80338649 143.89322984 377.04427191 141.91145901 378.28515625 139.9296875 C378.89762207 138.95225586 379.51008789 137.97482422 380.14111328 136.96777344 C383.26464398 131.98095454 386.38206459 126.99031846 389.5 122 C393.23530524 116.02156868 396.97176296 110.04387948 400.71484375 104.0703125 C407.24985065 93.63608768 413.74595628 83.17972182 420.1875 72.6875 C425.23536689 64.46644663 430.32178507 56.27330243 435.48852539 48.12646484 C440.75341805 39.82396305 445.95762052 31.48376662 451.1640625 23.14453125 C451.75424982 22.24294281 452.34443714 21.34135437 452.95250893 20.41244507 C454.46494175 17.89175329 455.62821403 15.63345353 456.77347374 12.96380615 C459.16008334 7.81330871 461.69578741 2.38007711 467.18633699 0.08682823 C473.84612945 -1.39103924 480.65701648 -1.00361676 487.43212891 -0.81640625 C489.7192859 -0.81188926 492.00646608 -0.81443389 494.29360962 -0.82348633 C500.48494937 -0.8280679 506.6713054 -0.73417893 512.86148882 -0.62230301 C519.33679282 -0.52211277 525.81221799 -0.51287056 532.28817749 -0.49389648 C543.15151576 -0.44985468 554.01301846 -0.35000035 564.87548828 -0.20703125 C576.05964089 -0.05998207 587.24329748 0.05317883 598.42822266 0.12109375 C599.1185784 0.12529733 599.80893413 0.1295009 600.52020974 0.13383186 C603.98380483 0.15471369 607.4474034 0.17493272 610.9110043 0.19482231 C639.60856663 0.36047322 668.3042119 0.64328379 697 1 C695.12322885 4.87384435 692.82660951 8.39495043 690.43359375 11.96484375 C689.97211945 12.65703003 689.51064514 13.34921631 689.03518677 14.06237793 C687.50507029 16.35572915 685.97140952 18.64668433 684.4375 20.9375 C683.35465989 22.55797301 682.27189755 24.178498 681.18920898 25.79907227 C671.08354843 40.91435277 660.90602841 55.98101786 650.71281433 71.03733826 C645.49064107 78.75097331 640.27574033 86.469513 635.06149292 94.18850708 C632.45796109 98.04254018 629.85395669 101.89625395 627.25 105.75 C626.20833107 107.29166514 625.1666644 108.8333318 624.125 110.375 C588.70833333 162.79166667 553.29166667 215.20833333 517.875 267.625 C517.10172112 268.76945335 517.10172112 268.76945335 516.31282043 269.93702698 C515.27008716 271.48027141 514.22735238 273.02351481 513.18461609 274.5667572 C510.59675615 278.39677578 508.00892162 282.22681153 505.42114258 286.05688477 C500.53922653 293.28236394 495.65704087 300.50766057 490.77401733 307.73239136 C488.46725161 311.14542355 486.16062245 314.55854802 483.85400391 317.97167969 C482.75430011 319.59884176 481.65452939 321.22595861 480.5546875 322.85302734 C479.02977844 325.10893499 477.50510002 327.36499836 475.98046875 329.62109375 C475.53370285 330.28189438 475.08693695 330.94269501 474.62663269 331.6235199 C473.80068995 332.84590329 472.979547 334.0715491 472.16415405 335.30099487 C471.02642806 336.96143001 469.79547265 338.5567481 468.5637207 340.14868164 C466.6909345 342.83781239 466.6909345 342.83781239 467.49682617 345.47729492 C469.28831214 348.48386054 471.10740794 351.45317411 473.05078125 354.36328125 C473.65971977 355.28704056 473.65971977 355.28704056 474.28096008 356.22946167 C475.62069923 358.25988852 476.9666346 360.28612989 478.3125 362.3125 C479.25942869 363.74553462 480.20587246 365.17888977 481.15185547 366.61254883 C483.11937249 369.59353561 485.08897462 372.57312847 487.06005859 375.55175781 C491.16371393 381.75639699 495.24239055 387.97738876 499.32089233 394.19857788 C500.63374487 396.20083699 501.94725289 398.20266448 503.26098633 400.2043457 C509.40219883 409.56147028 515.53695094 418.92281597 521.66955566 428.2855835 C527.90007469 437.7975958 534.13579823 447.30618078 540.375 456.8125 C540.81100525 457.47682037 541.2470105 458.14114075 541.69622803 458.82559204 C544.79732617 463.55049918 547.89863876 468.27526555 551 473 C554.54181368 478.39573685 558.08353287 483.79153568 561.625 489.1875 C562.06116638 489.85206207 562.49733276 490.51662415 562.94671631 491.20132446 C569.52597242 501.22615415 576.09939511 511.25479093 582.66955566 521.2855835 C588.90007469 530.7975958 595.13579823 540.30618078 601.375 549.8125 C601.81100525 550.47682037 602.2470105 551.14114075 602.69622803 551.82559204 C605.79732617 556.55049918 608.89863876 561.27526555 612 566 C615.54181368 571.39573685 619.08353287 576.79153568 622.625 582.1875 C623.27924957 583.18434311 623.27924957 583.18434311 623.94671631 584.20132446 C630.52597242 594.22615415 637.09939511 604.25479093 643.66955566 614.2855835 C650.7749618 625.13326893 657.88730087 635.97639291 665.00366211 646.81689453 C665.88395476 648.15787568 666.76424447 649.49885875 667.64453125 650.83984375 C668.08206223 651.50634949 668.5195932 652.17285522 668.97038269 652.85955811 C671.70749521 657.02954271 674.44297952 661.20059057 677.17723083 665.37245178 C679.02097151 668.18553932 680.86517902 670.99832064 682.70944214 673.81106567 C683.60557885 675.17801927 684.5015166 676.54510333 685.39724731 677.912323 C689.56485515 684.27316409 693.73694722 690.6295252 697.984375 696.9375 C698.55792725 697.78973145 699.13147949 698.64196289 699.72241211 699.52001953 C700.74490374 701.03436841 701.7714359 702.54600113 702.80297852 704.05419922 C706 708.7827173 706 708.7827173 706 711 C677.25228966 711.36529557 648.5048538 711.64830225 619.75527794 711.81704527 C616.35833252 711.83705568 612.96139169 711.85776493 609.56445312 711.87890625 C608.88820668 711.88310322 608.21196023 711.88730018 607.51522146 711.89162433 C596.57666419 711.96117715 585.63945741 712.08728714 574.70170034 712.23444474 C563.47171445 712.38426961 552.24240101 712.47178366 541.01136577 712.50541592 C534.7051556 712.52626433 528.40200389 712.57518675 522.09677505 712.69168091 C516.15811616 712.80051073 510.22376586 712.83374799 504.28420448 712.8097229 C502.10798883 712.81411558 499.93162541 712.8458307 497.75627327 712.9072876 C481.72720833 713.33781974 481.72720833 713.33781974 477.14922476 709.41347694 C473.95146165 705.58755525 471.77703239 701.38727374 469.81165481 696.82706833 C468.81805724 694.59043937 467.56872927 692.60873704 466.1796875 690.59765625 C465.798125 690.01113281 465.4165625 689.42460938 465.0234375 688.8203125 C464.64445312 688.24023438 464.26546875 687.66015625 463.875 687.0625 C459.21634709 679.89639567 454.60294081 672.7020012 450 665.5 C445.51771707 658.48840647 441.02947662 651.48121168 436.5 644.5 C431.26396056 636.42977407 426.08392403 628.32401525 420.90234375 620.21875 C417.11802177 614.30170766 413.32290498 608.39218382 409.5 602.5 C404.97052291 595.5187876 400.48238645 588.51152798 396 581.5 C390.5085773 572.9103564 384.99502336 564.33585897 379.44921875 555.78125 C377.08269498 552.13041443 374.72674504 548.47286912 372.375 544.8125 C372.01164551 544.24716553 371.64829102 543.68183105 371.27392578 543.09936523 C369.42079585 540.21510502 367.57034344 537.32915617 365.72265625 534.44140625 C360.8961259 526.90502841 355.99271769 519.42785793 351 512 C348.12648175 514.58883533 346.24864157 517.55329526 344.1875 520.8125 C343.8064209 521.41215576 343.4253418 522.01181152 343.03271484 522.62963867 C342.17008261 523.9877358 341.3091917 525.34693997 340.44970703 526.70703125 C337.68405897 531.0813941 334.9030088 535.44598109 332.125 539.8125 C331.52131592 540.76229736 330.91763184 541.71209473 330.2956543 542.69067383 C326.28793268 548.99190303 322.24675018 555.27016725 318.1796875 561.53320312 C314.45932134 567.27057013 310.78936561 573.03924435 307.125 578.8125 C302.5842338 585.96578729 298.00523188 593.0918019 293.375 600.1875 C288.6415885 607.44206088 283.986097 614.74152374 279.37402344 622.07373047 C275.72353679 627.87149152 272.0169869 633.63040869 268.28466797 639.37573242 C264.4876879 645.22811371 260.73983139 651.11096828 257 657 C251.88003161 665.06076806 246.72183191 673.09509712 241.5234375 681.10546875 C239.87561289 683.64518315 238.23463031 686.18905297 236.6015625 688.73828125 C236.21460205 689.34220703 235.8276416 689.94613281 235.42895508 690.56835938 C234.40620299 692.16611597 233.38468 693.76465916 232.36328125 695.36328125 C231.99041489 695.89958035 231.61754852 696.43587944 231.23338318 696.98843002 C229.87364927 699.08716099 229.87364927 699.08716099 228.79017639 701.93225479 C227.01700668 705.56383629 225.31106605 708.63530069 222 711 C215.08065148 713.32110177 207.25843871 712.51273108 200.0703125 712.36230469 C197.81300539 712.35891815 195.55568506 712.36082304 193.29838562 712.36761475 C187.18012407 712.37105515 181.06469094 712.30055727 174.94708633 712.21672726 C168.55040111 712.14166203 162.1536495 712.13465875 155.7565918 712.12042236 C145.02284593 712.08737336 134.29033533 712.01244518 123.55712891 711.90527344 C112.50477255 711.7950301 101.45269793 711.71013691 90.39990234 711.65917969 C89.37702204 711.65445066 89.37702204 711.65445066 88.3334775 711.64962611 C84.91229202 711.63396502 81.49110456 711.61880068 78.06991577 711.60388327 C49.71256428 711.47959463 21.35633778 711.26744199 -7 711 C-6.38207842 709.7397438 -5.76127304 708.48090137 -5.13929749 707.22264099 C-4.79390458 706.52146873 -4.44851168 705.82029646 -4.09265232 705.09787655 C-2.39367808 701.83587075 -0.37361902 698.82391065 1.69140625 695.78515625 C2.14449158 695.10974792 2.5975769 694.4343396 3.06439209 693.73846436 C4.04506576 692.27740499 5.02778806 690.81771897 6.01235962 689.35928345 C8.7214866 685.34527408 11.4141604 681.32023294 14.109375 677.296875 C14.95711235 676.032705 14.95711235 676.032705 15.82197571 674.74299622 C22.03774089 665.46721441 28.17831324 656.14234895 34.3125 646.8125 C35.44878461 645.08510578 36.58509662 643.35772959 37.72143555 641.63037109 C40.00985834 638.15131651 42.29779151 634.67194052 44.58544922 631.19238281 C49.62012327 623.53528451 54.66073695 615.88209778 59.70126343 608.22885132 C61.37882725 605.68168882 63.05624916 603.13443292 64.73364258 600.5871582 C73.59553164 587.13001977 82.46257563 573.67628198 91.33044434 560.2230835 C103.44480943 541.8445218 115.55199808 523.46124065 127.65722656 505.07666016 C132.70794831 497.40604037 137.7592418 489.73579709 142.81048584 482.06552124 C145.62368004 477.79369585 148.43683822 473.52184674 151.25 469.25 C152.37499983 467.54166655 153.49999983 465.83333322 154.625 464.125 C155.181875 463.279375 155.73875 462.43375 156.3125 461.5625 C161.375 453.87500001 161.375 453.87500001 163.06236267 451.31271362 C164.18782666 449.60367232 165.31328442 447.8946269 166.43873596 446.18557739 C169.24408587 441.92554245 172.04954262 437.66557795 174.85522461 433.40576172 C180.00305953 425.5896616 185.15005219 417.77301267 190.2930603 409.95373535 C192.05795143 407.27066591 193.82338545 404.58795427 195.58886719 401.90527344 C197.87695815 398.42825207 200.16249909 394.94957418 202.44628906 391.46972656 C207.48141621 383.80504219 212.54412923 376.16492863 217.73046875 368.6015625 C218.5958178 367.33265321 219.46097771 366.06361491 220.32592773 364.79443359 C221.88872379 362.50176388 223.46948609 360.22323003 225.06274414 357.95166016 C225.73813232 356.96214355 226.41352051 355.97262695 227.109375 354.953125 C227.69686523 354.10911133 228.28435547 353.26509766 228.88964844 352.39550781 C230.15660227 350.09407549 230.15660227 350.09407549 230.01953125 347.7121582 C228.47785524 343.61098991 226.06474508 340.24063361 223.578125 336.65234375 C223.01514709 335.82529434 222.45216919 334.99824493 221.87213135 334.14613342 C220.64858496 332.35003593 219.42144638 330.55638151 218.19116211 328.76489258 C214.85507376 323.90572529 211.54622358 319.02804945 208.234375 314.15234375 C207.54851318 313.14400482 206.86265137 312.13566589 206.15600586 311.09677124 C199.16322668 300.80142452 192.32462088 290.40723168 185.5 280 C175.93582288 265.42942737 166.27095818 250.93269496 156.5 236.5 C146.1118014 221.15557842 135.85838316 205.7289709 125.6875 190.23974609 C116.72295137 176.59247662 107.65375417 163.02102213 98.5 149.5 C88.72901245 135.06726165 79.06690969 120.56880883 69.5 106 C59.8658994 91.33055328 50.14241267 76.726491 40.3125 62.1875 C39.11755872 60.41937633 37.9226529 58.65122869 36.7277832 56.88305664 C36.13912979 56.01197769 35.55047638 55.14089874 34.94398499 54.24342346 C34.06292336 52.93956947 34.06292336 52.93956947 33.1640625 51.609375 C32.57866196 50.74307968 31.99326141 49.87678436 31.39012146 48.98423767 C25.22195009 39.85337258 19.06885341 30.71249743 12.94052124 21.55484009 C11.77898427 19.82061279 10.61577572 18.08750382 9.45083618 16.3555603 C7.85216584 13.97822087 6.2593041 11.59709695 4.66796875 9.21484375 C4.19140839 8.50873962 3.71484802 7.8026355 3.22384644 7.07513428 C0 2.22848222 0 2.22848222 0 0 Z " fill="#FEFEFE" transform="translate(656,322)"/>
<path d="M0 0 C102.3 0 204.6 0 310 0 C310 107.91 310 215.82 310 327 C207.7 327 105.4 327 0 327 C0 219.09 0 111.18 0 0 Z " fill="#FFFFFF" transform="translate(4290,1447)"/>
<path d="M0 0 C102.3 0 204.6 0 310 0 C310 107.91 310 215.82 310 327 C207.7 327 105.4 327 0 327 C0 219.09 0 111.18 0 0 Z " fill="#FFFFFF" transform="translate(0,1447)"/>
<path d="M0 0 C23.0462293 19.70587827 38.83896674 47.41459911 42.48095703 77.72265625 C42.74516054 82.56018527 42.76145257 87.37894875 42.73095703 92.22265625 C42.73869141 93.45113281 42.74642578 94.67960937 42.75439453 95.9453125 C42.6859654 128.20964996 28.10352771 157.98913667 5.64111328 180.62890625 C-7.45376505 193.37789887 -22.9151995 201.40875858 -39.51904297 208.72265625 C-40.53611328 209.17640625 -41.55318359 209.63015625 -42.60107422 210.09765625 C-70.49520588 221.34316445 -102.98429241 220.01735703 -130.51904297 208.72265625 C-162.34777806 195.07863611 -186.14876091 169.70185323 -199.30078125 137.828125 C-210.23746978 109.72845197 -209.90666925 76.47574292 -198.27294922 48.625 C-187.3321803 23.79859813 -170.3632598 2.27763533 -146.51904297 -11.27734375 C-145.88530762 -11.63763672 -145.25157227 -11.99792969 -144.59863281 -12.36914062 C-99.06825083 -37.68032558 -40.13081264 -33.74548565 0 0 Z " fill="#FDFDFD" transform="translate(2886.51904296875,1404.27734375)"/>
<path d="M0 0 C0.75410156 0.67160156 1.50820312 1.34320312 2.28515625 2.03515625 C24.35920971 22.86340775 37.97575912 53.33108975 39.37890625 83.52734375 C40.3146441 118.3928865 29.76934612 148.85096956 5.68212891 174.29541016 C-6.36218597 186.50054898 -20.58162895 194.7938201 -36 202 C-36.67836914 202.32033203 -37.35673828 202.64066406 -38.05566406 202.97070312 C-49.38269739 208.23682745 -60.68929993 211.03408578 -73 213 C-74.21042969 213.19335938 -75.42085937 213.38671875 -76.66796875 213.5859375 C-107.69855291 217.44202416 -138.49391243 206.05153824 -162.875 187.375 C-173.91715424 178.26084094 -183.38930276 168.1413306 -191 156 C-191.38639648 155.38769531 -191.77279297 154.77539062 -192.17089844 154.14453125 C-197.70810087 145.14019536 -201.34250119 135.75999281 -204.5 125.6875 C-205.00781006 124.0782666 -205.00781006 124.0782666 -205.52587891 122.43652344 C-207.65358982 115.27216489 -208.69719464 108.45973626 -209 101 C-209.05800781 99.65699829 -209.05800781 99.65699829 -209.1171875 98.28686523 C-210.22039067 64.41664755 -200.12704607 32.63180597 -176.90625 7.46875 C-169.01310816 -0.78972387 -160.91689682 -8.24120342 -151 -14 C-150.29649414 -14.41330566 -149.59298828 -14.82661133 -148.86816406 -15.25244141 C-137.95728377 -21.56572807 -127.2683098 -26.11333887 -115 -29 C-114.02933594 -29.23203125 -113.05867188 -29.4640625 -112.05859375 -29.703125 C-72.24077823 -38.01086594 -30.16002631 -27.07163962 0 0 Z " fill="#FDFDFD" transform="translate(2317,1408)"/>
<path d="M0 0 C19.47 0 38.94 0 59 0 C70.87274374 12.27980924 70.87274374 12.27980924 73.86474609 21.72998047 C75.57087182 26.64435638 78.32146277 30.61564015 81.25 34.875 C82.22317571 36.40309774 83.18943164 37.93562619 84.1484375 39.47265625 C87.05494993 44.08741707 89.96379424 48.70069837 92.875 53.3125 C93.36516602 54.08899902 93.85533203 54.86549805 94.36035156 55.66552734 C98.22664212 61.7856924 102.11109528 67.89418545 106 74 C112.84871863 84.7529006 119.65846334 95.53005331 126.45898438 106.31347656 C127.9306383 108.64670625 129.40270065 110.97967754 130.875 113.3125 C131.35702881 114.07643066 131.83905762 114.84036133 132.33569336 115.62744141 C135.15807576 120.09640643 137.99079645 124.55861942 140.83203125 129.015625 C141.47350098 130.02197998 142.1149707 131.02833496 142.77587891 132.06518555 C144.03114966 134.03337954 145.28730652 136.00100873 146.54443359 137.96801758 C147.1111377 138.85642334 147.6778418 139.7448291 148.26171875 140.66015625 C148.76662842 141.45043213 149.27153809 142.24070801 149.79174805 143.05493164 C151 145 151 145 152 147 C152.495 74.235 152.495 74.235 153 0 C170.16 0 187.32 0 205 0 C205 77.88 205 155.76 205 236 C185.53 236 166.06 236 146 236 C128.90637352 209.78977273 128.90637352 209.78977273 122.75 200.125 C118.35237219 193.23750755 113.94832181 186.35487404 109.5 179.5 C104.26388539 171.42982336 99.08392359 163.32401455 93.90234375 155.21875 C89.69880314 148.6462311 85.47689883 142.08631158 81.22924805 135.54223633 C78.48741052 131.31283326 75.76426064 127.07187994 73.05078125 122.82421875 C72.35082031 121.72851562 71.65085937 120.6328125 70.9296875 119.50390625 C69.5627243 117.36266684 68.19676597 115.22078543 66.83203125 113.078125 C63.52197262 107.89281137 60.17430936 102.73745175 56.7565918 97.62231445 C56.04923386 96.5630928 55.34187592 95.50387115 54.61308289 94.41255188 C54.08076553 93.61640976 53.54844818 92.82026764 53 92 C52.99576806 92.74636939 52.99153612 93.49273878 52.98717594 94.26172543 C52.88401243 112.39623514 52.77539644 130.53070462 52.66066074 148.66514492 C52.60530858 157.43470851 52.55182337 166.20427616 52.50268555 174.97387695 C52.45986806 182.61465457 52.41359632 190.25540199 52.36312145 197.89613301 C52.33650081 201.94436612 52.31164734 205.99259316 52.29092598 210.04086113 C52.27139034 213.84683804 52.24725599 217.65275737 52.21950912 221.45868301 C52.21012234 222.85956467 52.20245296 224.26045899 52.19658089 225.66135979 C52.18834734 227.56592657 52.17348171 229.47046132 52.15821838 231.37498474 C52.15176583 232.44334281 52.14531328 233.51170088 52.1386652 234.61243343 C52 237 52 237 51 238 C34.17 238 17.34 238 0 238 C0 159.46 0 80.92 0 0 Z " fill="#FDFDFD" transform="translate(1810,1379)"/>
<path d="M0 0 C6.65364285 5.85150352 12.55826943 12.08171013 17.57958984 19.38916016 C16.06560907 23.20404957 13.84961917 25.01992645 10.64208984 27.51416016 C6.65568315 30.68457487 2.82113754 33.93293912 -0.92041016 37.38916016 C-5.5387281 41.6419997 -10.31205728 45.6450029 -15.20556641 49.57666016 C-17.44794583 51.35042372 -17.44794583 51.35042372 -19.42041016 53.38916016 C-22.42041016 53.38916016 -22.42041016 53.38916016 -23.92822266 51.92041016 C-24.46189453 51.25009766 -24.99556641 50.57978516 -25.54541016 49.88916016 C-37.05501296 36.26946351 -53.32797224 25.07169457 -71.42041016 23.38916016 C-93.82467626 22.11274774 -113.75760569 25.87933048 -131.02978516 41.05712891 C-141.53990974 51.3096524 -148.49093954 63.96715097 -151.42041016 78.38916016 C-151.60216797 79.24638672 -151.78392578 80.10361328 -151.97119141 80.98681641 C-154.79398917 102.36644117 -151.75411105 122.44562987 -139.31884766 140.42822266 C-128.41687071 154.41203054 -113.84797749 163.25125074 -96.42041016 166.38916016 C-92.07562601 166.77322399 -87.77977012 166.81075664 -83.42041016 166.76416016 C-82.33501953 166.77576172 -81.24962891 166.78736328 -80.13134766 166.79931641 C-63.91852655 166.74127528 -48.55719695 161.40109921 -36.74462891 150.05712891 C-31.1179734 143.59829578 -26.59898767 136.33560394 -23.42041016 128.38916016 C-53.12041016 127.89416016 -53.12041016 127.89416016 -83.42041016 127.38916016 C-83.42041016 111.87916016 -83.42041016 96.36916016 -83.42041016 80.38916016 C-43.16041016 80.38916016 -2.90041016 80.38916016 38.57958984 80.38916016 C38.57958984 116.49844209 35.0023696 149.11305572 9.57958984 176.38916016 C9.10150879 176.90816895 8.62342773 177.42717773 8.13085938 177.96191406 C-12.69540235 200.37856876 -41.3345749 214.012673 -71.96582031 215.56933594 C-104.89381363 216.73474379 -136.20867449 210.5094076 -162.42041016 189.38916016 C-162.94231934 188.97794922 -163.46422852 188.56673828 -164.00195312 188.14306641 C-171.83535242 181.94804015 -178.50102045 175.50052422 -184.42041016 167.38916016 C-185.03311768 166.56206543 -185.03311768 166.56206543 -185.65820312 165.71826172 C-200.82926442 145.02679532 -207.59192022 121.03351314 -207.66064453 95.56542969 C-207.67026445 93.42162968 -207.7013217 91.27882652 -207.73291016 89.13525391 C-207.83536081 75.96021369 -206.06904427 63.25064079 -201.29541016 50.88916016 C-200.99755615 50.1029126 -200.69970215 49.31666504 -200.39282227 48.5065918 C-195.59293366 36.28612214 -189.11724265 25.24445103 -180.42041016 15.38916016 C-179.71142578 14.56029297 -179.00244141 13.73142578 -178.27197266 12.87744141 C-134.27931498 -37.52116467 -51.00423296 -43.61231514 0 0 Z " fill="#FDFDFD" transform="translate(3223.42041015625,1402.61083984375)"/>
<path d="M0 0 C18.15 0 36.3 0 55 0 C55 31.35 55 62.7 55 95 C87.67 95 120.34 95 154 95 C154 63.65 154 32.3 154 0 C171.82 0 189.64 0 208 0 C208 77.88 208 155.76 208 236 C190.18 236 172.36 236 154 236 C154 205.64 154 175.28 154 144 C121.33 144 88.66 144 55 144 C55 174.36 55 204.72 55 236 C36.85 236 18.7 236 0 236 C0 158.12 0 80.24 0 0 Z " fill="#FCFCFC" transform="translate(1505,1379)"/>
<path d="M0 0 C57.09 0 114.18 0 173 0 C173 16.5 173 33 173 50 C133.73 50 94.46 50 54 50 C54 64.52 54 79.04 54 94 C90.3 94 126.6 94 164 94 C164 109.51 164 125.02 164 141 C127.7 141 91.4 141 54 141 C54 156.84 54 172.68 54 189 C93.27 189 132.54 189 173 189 C173 204.84 173 220.68 173 237 C115.91 237 58.82 237 0 237 C0 158.79 0 80.58 0 0 Z " fill="#FEFEFE" transform="translate(931,1379)"/>
<path d="M0 0 C56.76 0 113.52 0 172 0 C172 16.5 172 33 172 50 C132.73 50 93.46 50 53 50 C53 64.52 53 79.04 53 94 C88.97 94 124.94 94 162 94 C162 109.51 162 125.02 162 141 C126.03 141 90.06 141 53 141 C53 156.84 53 172.68 53 189 C92.27 189 131.54 189 172 189 C172 204.84 172 220.68 172 237 C115.24 237 58.48 237 0 237 C0 158.79 0 80.58 0 0 Z " fill="#FEFEFE" transform="translate(3505,1379)"/>
<path d="M0 0 C2.05156625 -0.00217353 4.10258214 -0.02033664 6.15405273 -0.03930664 C18.21159241 -0.09377538 29.05096458 1.52817839 40.44897461 5.43530273 C41.81566284 5.90045288 41.81566284 5.90045288 43.20996094 6.375 C63.68296879 13.53240893 78.33635713 26.53165862 87.94116211 45.92358398 C90.57034995 51.50341604 92.4128324 57.20117552 93.88647461 63.18530273 C94.10948242 64.03995117 94.33249023 64.89459961 94.56225586 65.77514648 C95.64567978 70.20465517 95.88647461 73.45766731 95.88647461 78.18530273 C78.06647461 78.18530273 60.24647461 78.18530273 41.88647461 78.18530273 C40.89647461 73.89530273 39.90647461 69.60530273 38.88647461 65.18530273 C33.69665443 54.68496888 26.9212252 49.04845599 15.88647461 45.18530273 C4.55005413 42.27902176 -10.32794895 43.2126039 -20.77758789 48.54467773 C-25.63503371 51.61420376 -29.50361452 54.96548099 -32.11352539 60.18530273 C-32.28955686 62.59779966 -32.38097507 65.01681169 -32.42602539 67.43530273 C-32.4634082 68.73983398 -32.50079102 70.04436523 -32.53930664 71.38842773 C-31.97148331 76.45195321 -29.96660053 79.24697716 -26.50024414 82.87280273 C-10.03088134 95.59396572 14.25434796 98.65333395 34.07397461 102.74780273 C43.44597979 104.70793455 52.11278214 107.35918121 60.88647461 111.18530273 C62.0969043 111.70866211 63.30733398 112.23202148 64.55444336 112.77124023 C81.15604884 120.48365456 92.60434158 131.8511404 98.97631836 149.04467773 C104.53885289 168.2390029 101.16675453 189.42941635 92.00756836 206.82202148 C80.57544046 224.94920772 61.6083708 236.67984804 41.04125977 241.69750977 C7.34310088 249.32598489 -28.22497268 247.49758739 -58.11352539 229.18530273 C-74.93802068 218.03940476 -85.49976308 200.3431719 -89.85961914 180.84936523 C-90.76121099 175.81288665 -91.11352539 171.34429615 -91.11352539 166.18530273 C-73.29352539 166.18530273 -55.47352539 166.18530273 -37.11352539 166.18530273 C-36.12352539 170.47530273 -35.13352539 174.76530273 -34.11352539 179.18530273 C-30.09219042 188.2924437 -24.13165199 194.79697059 -14.80102539 198.62280273 C-7.63459119 201.19625656 -1.20560236 201.43411081 6.38647461 201.49780273 C7.50795898 201.52680664 8.62944336 201.55581055 9.78491211 201.58569336 C20.33614589 201.66488853 31.72562479 199.40160975 39.88647461 192.18530273 C44.47590626 186.33377738 46.77873477 180.72895686 45.88647461 173.18530273 C44.55575013 167.80098678 41.75639037 164.70191052 37.26147461 161.56030273 C24.66305576 154.26909183 10.3692231 151.51646883 -3.70996094 148.50537109 C-30.91789373 142.6224203 -60.50571061 135.38153506 -76.86352539 110.81030273 C-87.05576617 94.02444834 -88.9005751 73.91607512 -85.46118164 54.69702148 C-82.12909086 42.06939848 -75.46635774 31.21133063 -66.11352539 22.18530273 C-65.41098633 21.49952148 -64.70844727 20.81374023 -63.98461914 20.10717773 C-46.56240012 4.71502598 -22.5229806 -0.00266324 0 0 Z " fill="#FDFDFD" transform="translate(3851.113525390625,1376.814697265625)"/>
<path d="M0 0 C15.365625 -0.0825 30.73125 -0.165 46.5625 -0.25 C51.36498291 -0.28641602 56.16746582 -0.32283203 61.11547852 -0.36035156 C67.10534668 -0.37841797 67.10534668 -0.37841797 69.93370056 -0.3817749 C71.85606115 -0.38780747 73.77840934 -0.40163825 75.70066833 -0.42230225 C104.13775683 -0.71197555 132.05729068 3.30017793 153.58203125 23.421875 C167.84171481 38.62606103 174.33032463 58.37957924 175 79 C175.0515625 80.29292969 175.103125 81.58585938 175.15625 82.91796875 C175.7877163 105.93754636 168.62975777 127.78818756 153.01171875 144.9921875 C139.75073488 158.74399717 117.19375945 169.28727659 97.86384964 170.08854866 C95.28838046 170.12283311 92.71484109 170.12365115 90.13916016 170.11352539 C89.14721838 170.11364593 88.1552766 170.11376646 87.13327599 170.11389065 C83.9351817 170.11314666 80.73714631 170.10554184 77.5390625 170.09765625 C75.55948922 170.09618524 73.57991555 170.09516551 71.6003418 170.09460449 C64.27522192 170.08937004 56.95011038 170.07540879 49.625 170.0625 C33.24875 170.041875 16.8725 170.02125 0 170 C0 113.9 0 57.8 0 0 Z " fill="#C42328" transform="translate(1821,502)"/>
<path d="M0 0 C2.02072758 -0.00217023 4.04089312 -0.02033243 6.06152344 -0.03930664 C18.76934542 -0.05795804 30.707675 1.32719279 42.79589844 5.31030273 C44.20452148 5.77098145 44.20452148 5.77098145 45.64160156 6.2409668 C68.04289338 13.80731997 85.74253823 26.925574 99.92089844 45.93530273 C100.39035889 46.56146484 100.85981934 47.18762695 101.34350586 47.83276367 C103.98620817 51.48987094 105.72899105 54.76982764 106.92089844 59.18530273 C98.49696755 65.43943324 90.00335125 71.58771866 81.42089844 77.62280273 C80.58526367 78.21335449 79.74962891 78.80390625 78.88867188 79.41235352 C74.34682118 82.59346938 69.78627266 85.52373377 64.92089844 88.18530273 C64.43621094 87.4956543 63.95152344 86.80600586 63.45214844 86.09545898 C50.05191899 67.30936809 33.30086028 53.03001754 9.95214844 48.48999023 C-8.80604161 45.67626173 -27.75360149 50.05757577 -43.22753906 60.95874023 C-57.79576451 72.33392997 -68.27223879 88.71996087 -71.07910156 107.18530273 C-72.78165974 128.23856398 -70.10288831 149.73282593 -56.39550781 166.64624023 C-44.99444344 179.84453635 -28.70883106 190.29707084 -11.07910156 192.18530273 C10.78627201 193.43789197 28.3969304 190.26146568 45.92089844 176.18530273 C46.76394531 175.54463867 47.60699219 174.90397461 48.47558594 174.24389648 C54.609383 169.08014081 59.23292103 162.25392609 62.92089844 155.18530273 C66.04329508 155.80085845 68.15876879 156.82304619 70.76464844 158.63452148 C71.50739014 159.14668213 72.25013184 159.65884277 73.01538086 160.18652344 C73.80920166 160.74299561 74.60302246 161.29946777 75.42089844 161.87280273 C76.24372314 162.44281006 77.06654785 163.01281738 77.91430664 163.60009766 C80.58787148 165.45517796 83.25482356 167.31947674 85.92089844 169.18530273 C87.82059524 170.51088488 89.72033495 171.83640553 91.62011719 173.16186523 C96.39250794 176.49524947 101.15888236 179.83711673 105.92089844 183.18530273 C104.46470068 187.47475482 102.19666436 190.7870521 99.42089844 194.31030273 C98.97584961 194.87797363 98.53080078 195.44564453 98.07226562 196.03051758 C76.54906973 223.18857413 47.07067275 240.85710825 12.43554688 244.94213867 C-19.34222081 248.01501796 -52.06877187 239.43037487 -77.24707031 219.55639648 C-98.54844593 201.72200338 -114.00502204 180.4126488 -121.07910156 153.18530273 C-121.37945313 152.08959961 -121.67980469 150.99389648 -121.98925781 149.86499023 C-129.45297657 117.71892711 -123.08523848 84.07964555 -106.07910156 56.18530273 C-103.29694062 51.97982594 -100.3110118 48.0539635 -97.07910156 44.18530273 C-96.25925781 43.20174805 -95.43941406 42.21819336 -94.59472656 41.20483398 C-75.67819705 19.24389775 -49.66410764 5.4615407 -21.07910156 1.18530273 C-19.93054687 1.0009668 -18.78199219 0.81663086 -17.59863281 0.62670898 C-11.75746738 -0.07672512 -5.87530236 -0.00070312 0 0 Z " fill="#FDFDFD" transform="translate(1311.0791015625,1376.814697265625)"/>
<path d="M0 0 C63.69 0 127.38 0 193 0 C193 16.5 193 33 193 50 C169.9 50 146.8 50 123 50 C123 111.38 123 172.76 123 236 C105.51 236 88.02 236 70 236 C70 174.62 70 113.24 70 50 C46.9 50 23.8 50 0 50 C0 33.5 0 17 0 0 Z " fill="#FEFEFE" transform="translate(649,1379)"/>
<path d="M0 0 C17.82 0 35.64 0 54 0 C54 61.71 54 123.42 54 187 C89.97 187 125.94 187 163 187 C163 203.17 163 219.34 163 236 C109.21 236 55.42 236 0 236 C0 158.12 0 80.24 0 0 Z " fill="#FDFDFD" transform="translate(2449,1379)"/>
<path d="M0 0 C0.66 0 1.32 0 2 0 C9.80749689 25.23250298 9.80749689 25.23250298 12.625 34.9375 C14.33333103 40.81935769 16.14121801 46.66397556 18 52.5 C21.37974472 63.12113895 24.50851449 73.80737841 27.5859375 84.51953125 C30.90772949 96.04468031 34.3937046 107.49821465 38.0847168 118.91064453 C40.43423466 126.18690219 42.67588456 133.48814138 44.84960938 140.81860352 C46.5266905 146.46161593 48.27489185 152.07858036 50.0625 157.6875 C52.16773995 164.29602848 54.17228234 170.92603675 56.10571289 177.58666992 C57.66090396 182.9161877 59.31390875 188.21056426 61 193.5 C63.14530203 200.2307742 65.19872217 206.98089097 67.16479492 213.76611328 C68.83633773 219.51361238 70.62165691 225.22194329 72.47680664 230.9128418 C73.38108569 233.73948899 74 236.00974792 74 239 C25.49 239 -23.02 239 -73 239 C-71.22515452 231.90061809 -69.46545268 224.92978456 -67.29296875 217.96484375 C-67.04509109 217.16123917 -66.79721344 216.35763458 -66.54182434 215.52967834 C-65.76004321 212.99801483 -64.97381044 210.46775988 -64.1875 207.9375 C-63.67354684 206.27417543 -63.15987365 204.61076433 -62.64648438 202.94726562 C-60.15449785 194.88378138 -57.6333788 186.83004226 -55.08203125 178.78515625 C-51.46891951 167.38312024 -47.98865148 155.94059535 -44.5 144.5 C-40.76234892 132.24284165 -37.01621718 119.99020006 -33.1394043 107.77624512 C-30.52780216 99.53731464 -28.01206666 91.26971621 -25.5 83 C-22.7502308 73.94776772 -19.9804367 64.90378955 -17.1171875 55.88671875 C-13.5225047 44.55833098 -10.07597507 33.1853164 -6.625 21.8125 C-5.97795908 19.68291399 -5.33082417 17.55335655 -4.68359375 15.42382812 C-3.12131655 10.28287943 -1.56018293 5.14158463 0 0 Z " fill="#C42429" transform="translate(2695,523)"/>
<path d="M0 0 C16.65992603 12.4886625 27.76039526 28.58344213 31.140625 49.3203125 C33.75639723 70.40571123 26.95962011 91.93653435 14.23046875 108.8984375 C13.6890625 109.57261719 13.14765625 110.24679687 12.58984375 110.94140625 C11.97753906 111.76125 11.36523438 112.58109375 10.734375 113.42578125 C-0.29679056 126.3658006 -16.7478994 133.0740406 -33.2109375 135.32421875 C-53.44497224 136.26826392 -73.08817308 127.41596337 -88.171875 114.59375 C-101.42625439 102.11068212 -109.78989939 84.10544593 -110.6484375 65.83203125 C-111.18141962 43.71446809 -106.0230379 25.35932711 -90.41015625 8.94140625 C-65.65384577 -15.00610432 -28.94427481 -19.67870666 0 0 Z " fill="#231F20" transform="translate(2845.41015625,1436.05859375)"/>
<path d="M0 0 C15.59606142 10.72622798 26.37272642 26.89309171 30.3125 45.44140625 C33.75203231 65.10026373 30.95267747 86.68507924 19.78515625 103.51171875 C17.62724177 106.45164669 15.38656776 109.24362174 13 112 C12.45988281 112.65097656 11.91976562 113.30195312 11.36328125 113.97265625 C1.19218168 125.21979155 -14.42604192 132.49389291 -29.33203125 134.43359375 C-32.60452424 134.50500887 -35.73989118 134.30159597 -39 134 C-40.61972601 133.88965702 -42.23952374 133.78036388 -43.859375 133.671875 C-53.04410365 132.9824623 -61.63884899 132.13463512 -70 128 C-70.93457031 127.56300781 -71.86914062 127.12601563 -72.83203125 126.67578125 C-90.3735179 117.54869055 -101.10370314 102.09958464 -106.95703125 83.640625 C-107.30121094 82.43921875 -107.64539062 81.2378125 -108 80 C-108.18691406 79.37351562 -108.37382812 78.74703125 -108.56640625 78.1015625 C-110.02316352 72.87804715 -110.38557775 67.91051908 -110.375 62.5 C-110.37338867 61.63068848 -110.37177734 60.76137695 -110.37011719 59.86572266 C-110.2135777 51.47244372 -108.56874452 43.95684277 -106 36 C-105.58427734 34.63681641 -105.58427734 34.63681641 -105.16015625 33.24609375 C-99.28302042 16.37302636 -85.47703784 3.22243486 -70 -5 C-47.42442098 -15.59694555 -20.90513826 -13.42948218 0 0 Z " fill="#231F20" transform="translate(2271,1437)"/>
<path d="M0 0 C17.82 0 35.64 0 54 0 C54 77.88 54 155.76 54 236 C36.18 236 18.36 236 0 236 C0 158.12 0 80.24 0 0 Z " fill="#FCFCFC" transform="translate(3354,1379)"/>
</svg>
